<svg width="254" height="54" viewBox="0 0 254 54" fill="none" xmlns="http://www.w3.org/2000/svg">
<rect width="23.5556" height="26.2272" transform="matrix(-0.702428 0.711755 0.711755 0.702428 24.9347 0.000183105)" fill="black"/>
<rect width="11.6324" height="12.9517" transform="matrix(-0.702428 0.711755 0.711755 0.702428 43.8331 18.6506)" fill="black"/>
<rect width="11.6324" height="12.9517" transform="matrix(-0.702428 0.711755 0.711755 0.702428 8.18469 17.0002)" fill="black"/>
<rect width="11.6324" height="12.9517" transform="matrix(-0.702428 0.711755 0.711755 0.702428 27.0831 35.6232)" fill="black"/>
<rect width="11.6324" height="12.9517" transform="matrix(-0.702428 0.711755 0.711755 0.702428 26.0089 17.8107)" fill="black"/>
<path d="M68.9482 10.7275H72.3118L80.2209 30.0456H80.4936L88.4027 10.7275H91.7664V34.0002H89.13V16.3184H88.9027L81.63 34.0002H79.0846L71.8118 16.3184H71.5846V34.0002H68.9482V10.7275ZM100.59 34.4093C99.4836 34.4093 98.4798 34.2009 97.5783 33.7843C96.6768 33.36 95.9609 32.7502 95.4306 31.9547C94.9003 31.1517 94.6351 30.182 94.6351 29.0456C94.6351 28.0456 94.8321 27.235 95.226 26.6138C95.62 25.985 96.1465 25.4926 96.8056 25.1365C97.4647 24.7805 98.1919 24.5153 98.9874 24.3411C99.7904 24.1593 100.597 24.0153 101.408 23.9093C102.468 23.7729 103.328 23.6706 103.987 23.6025C104.654 23.5267 105.139 23.4017 105.442 23.2275C105.753 23.0532 105.908 22.7502 105.908 22.3184V22.2275C105.908 21.1062 105.601 20.235 104.987 19.6138C104.381 18.9926 103.461 18.682 102.226 18.682C100.946 18.682 99.9419 18.9623 99.2147 19.5229C98.4874 20.0835 97.976 20.682 97.6806 21.3184L95.1351 20.4093C95.5897 19.3487 96.1957 18.5229 96.9533 17.932C97.7185 17.3335 98.5518 16.9168 99.4533 16.682C100.362 16.4396 101.256 16.3184 102.135 16.3184C102.696 16.3184 103.34 16.3865 104.067 16.5229C104.802 16.6517 105.51 16.9206 106.192 17.3297C106.881 17.7388 107.453 18.3562 107.908 19.182C108.362 20.0078 108.59 21.1138 108.59 22.5002V34.0002H105.908V31.6365H105.771C105.59 32.0153 105.287 32.4206 104.862 32.8525C104.438 33.2843 103.874 33.6517 103.169 33.9547C102.465 34.2578 101.605 34.4093 100.59 34.4093ZM100.999 32.0002C102.059 32.0002 102.953 31.7918 103.681 31.3752C104.415 30.9585 104.968 30.4206 105.34 29.7615C105.718 29.1025 105.908 28.4093 105.908 27.682V25.2275C105.794 25.3638 105.544 25.4888 105.158 25.6025C104.779 25.7085 104.34 25.8032 103.84 25.8865C103.347 25.9623 102.866 26.0305 102.396 26.0911C101.934 26.1441 101.559 26.1896 101.271 26.2275C100.575 26.3184 99.923 26.4661 99.3169 26.6706C98.7185 26.8676 98.2336 27.1668 97.8624 27.5684C97.4988 27.9623 97.3169 28.5002 97.3169 29.182C97.3169 30.1138 97.6616 30.8184 98.351 31.2956C99.048 31.7653 99.9306 32.0002 100.999 32.0002ZM118.975 34.3638C117.339 34.3638 115.93 33.9775 114.748 33.2047C113.566 32.432 112.657 31.3676 112.021 30.0115C111.385 28.6555 111.066 27.1062 111.066 25.3638C111.066 23.5911 111.392 22.0267 112.044 20.6706C112.703 19.307 113.619 18.2426 114.794 17.4775C115.975 16.7047 117.354 16.3184 118.93 16.3184C120.157 16.3184 121.263 16.5456 122.248 17.0002C123.233 17.4547 124.04 18.0911 124.669 18.9093C125.297 19.7275 125.688 20.682 125.839 21.7729H123.157C122.953 20.9775 122.498 20.2729 121.794 19.6593C121.097 19.0381 120.157 18.7275 118.975 18.7275C117.93 18.7275 117.013 19.0002 116.225 19.5456C115.445 20.0835 114.835 20.8449 114.396 21.8297C113.964 22.807 113.748 23.9547 113.748 25.2729C113.748 26.6214 113.96 27.7956 114.385 28.7956C114.816 29.7956 115.422 30.5722 116.203 31.1252C116.991 31.6782 117.915 31.9547 118.975 31.9547C119.672 31.9547 120.305 31.8335 120.873 31.5911C121.441 31.3487 121.922 31.0002 122.316 30.5456C122.71 30.0911 122.991 29.5456 123.157 28.9093H125.839C125.688 29.9396 125.313 30.8676 124.714 31.6934C124.123 32.5115 123.339 33.1631 122.362 33.6479C121.392 34.1252 120.263 34.3638 118.975 34.3638ZM128.16 34.0002V16.5456H130.75V19.182H130.932C131.25 18.3184 131.826 17.6176 132.66 17.0797C133.493 16.5418 134.432 16.2729 135.478 16.2729C135.675 16.2729 135.921 16.2767 136.216 16.2843C136.512 16.2918 136.735 16.3032 136.887 16.3184V19.0456C136.796 19.0229 136.588 18.9888 136.262 18.9434C135.944 18.8903 135.607 18.8638 135.25 18.8638C134.402 18.8638 133.644 19.0418 132.978 19.3979C132.319 19.7464 131.796 20.2312 131.41 20.8525C131.031 21.4661 130.841 22.1668 130.841 22.9547V34.0002H128.16ZM145.025 34.3638C143.45 34.3638 142.067 33.9888 140.878 33.2388C139.696 32.4888 138.772 31.4396 138.105 30.0911C137.446 28.7426 137.116 27.1668 137.116 25.3638C137.116 23.5456 137.446 21.9585 138.105 20.6025C138.772 19.2464 139.696 18.1934 140.878 17.4434C142.067 16.6934 143.45 16.3184 145.025 16.3184C146.601 16.3184 147.98 16.6934 149.162 17.4434C150.351 18.1934 151.275 19.2464 151.935 20.6025C152.601 21.9585 152.935 23.5456 152.935 25.3638C152.935 27.1668 152.601 28.7426 151.935 30.0911C151.275 31.4396 150.351 32.4888 149.162 33.2388C147.98 33.9888 146.601 34.3638 145.025 34.3638ZM145.025 31.9547C146.222 31.9547 147.207 31.6479 147.98 31.0343C148.753 30.4206 149.325 29.6138 149.696 28.6138C150.067 27.6138 150.253 26.5305 150.253 25.3638C150.253 24.1972 150.067 23.11 149.696 22.1025C149.325 21.0949 148.753 20.2805 147.98 19.6593C147.207 19.0381 146.222 18.7275 145.025 18.7275C143.828 18.7275 142.844 19.0381 142.071 19.6593C141.298 20.2805 140.726 21.0949 140.355 22.1025C139.984 23.11 139.798 24.1972 139.798 25.3638C139.798 26.5305 139.984 27.6138 140.355 28.6138C140.726 29.6138 141.298 30.4206 142.071 31.0343C142.844 31.6479 143.828 31.9547 145.025 31.9547ZM167.792 20.4547L165.383 21.1365C165.231 20.735 165.008 20.3449 164.712 19.9661C164.425 19.5797 164.031 19.2615 163.531 19.0115C163.031 18.7615 162.39 18.6365 161.61 18.6365C160.542 18.6365 159.652 18.8828 158.94 19.3752C158.235 19.86 157.883 20.4775 157.883 21.2275C157.883 21.8941 158.125 22.4206 158.61 22.807C159.095 23.1934 159.853 23.5153 160.883 23.7729L163.474 24.4093C165.034 24.7881 166.197 25.3676 166.962 26.1479C167.728 26.9206 168.11 27.9168 168.11 29.1365C168.11 30.1365 167.822 31.0305 167.246 31.8184C166.678 32.6062 165.883 33.2275 164.86 33.682C163.837 34.1365 162.648 34.3638 161.292 34.3638C159.512 34.3638 158.038 33.9775 156.871 33.2047C155.705 32.432 154.966 31.3032 154.656 29.8184L157.201 29.182C157.443 30.1214 157.902 30.8259 158.576 31.2956C159.258 31.7653 160.148 32.0002 161.246 32.0002C162.496 32.0002 163.489 31.735 164.224 31.2047C164.966 30.6668 165.337 30.0229 165.337 29.2729C165.337 28.6668 165.125 28.1593 164.701 27.7502C164.277 27.3335 163.625 27.0229 162.746 26.8184L159.837 26.1365C158.239 25.7578 157.065 25.1706 156.315 24.3752C155.572 23.5722 155.201 22.5684 155.201 21.3638C155.201 20.379 155.478 19.5078 156.031 18.7502C156.591 17.9926 157.353 17.3979 158.315 16.9661C159.284 16.5343 160.383 16.3184 161.61 16.3184C163.337 16.3184 164.693 16.6972 165.678 17.4547C166.671 18.2123 167.375 19.2123 167.792 20.4547ZM177.638 34.3638C176.002 34.3638 174.593 33.9775 173.411 33.2047C172.229 32.432 171.32 31.3676 170.683 30.0115C170.047 28.6555 169.729 27.1062 169.729 25.3638C169.729 23.5911 170.055 22.0267 170.706 20.6706C171.365 19.307 172.282 18.2426 173.456 17.4775C174.638 16.7047 176.017 16.3184 177.593 16.3184C178.82 16.3184 179.926 16.5456 180.911 17.0002C181.896 17.4547 182.702 18.0911 183.331 18.9093C183.96 19.7275 184.35 20.682 184.502 21.7729H181.82C181.615 20.9775 181.161 20.2729 180.456 19.6593C179.759 19.0381 178.82 18.7275 177.638 18.7275C176.593 18.7275 175.676 19.0002 174.888 19.5456C174.108 20.0835 173.498 20.8449 173.058 21.8297C172.627 22.807 172.411 23.9547 172.411 25.2729C172.411 26.6214 172.623 27.7956 173.047 28.7956C173.479 29.7956 174.085 30.5722 174.865 31.1252C175.653 31.6782 176.577 31.9547 177.638 31.9547C178.335 31.9547 178.968 31.8335 179.536 31.5911C180.104 31.3487 180.585 31.0002 180.979 30.5456C181.373 30.0911 181.653 29.5456 181.82 28.9093H184.502C184.35 29.9396 183.975 30.8676 183.377 31.6934C182.786 32.5115 182.002 33.1631 181.024 33.6479C180.055 34.1252 178.926 34.3638 177.638 34.3638ZM193.913 34.3638C192.337 34.3638 190.955 33.9888 189.765 33.2388C188.583 32.4888 187.659 31.4396 186.993 30.0911C186.333 28.7426 186.004 27.1668 186.004 25.3638C186.004 23.5456 186.333 21.9585 186.993 20.6025C187.659 19.2464 188.583 18.1934 189.765 17.4434C190.955 16.6934 192.337 16.3184 193.913 16.3184C195.489 16.3184 196.868 16.6934 198.049 17.4434C199.239 18.1934 200.163 19.2464 200.822 20.6025C201.489 21.9585 201.822 23.5456 201.822 25.3638C201.822 27.1668 201.489 28.7426 200.822 30.0911C200.163 31.4396 199.239 32.4888 198.049 33.2388C196.868 33.9888 195.489 34.3638 193.913 34.3638ZM193.913 31.9547C195.11 31.9547 196.095 31.6479 196.868 31.0343C197.64 30.4206 198.212 29.6138 198.583 28.6138C198.955 27.6138 199.14 26.5305 199.14 25.3638C199.14 24.1972 198.955 23.11 198.583 22.1025C198.212 21.0949 197.64 20.2805 196.868 19.6593C196.095 19.0381 195.11 18.7275 193.913 18.7275C192.716 18.7275 191.731 19.0381 190.958 19.6593C190.186 20.2805 189.614 21.0949 189.243 22.1025C188.871 23.11 188.686 24.1972 188.686 25.3638C188.686 26.5305 188.871 27.6138 189.243 28.6138C189.614 29.6138 190.186 30.4206 190.958 31.0343C191.731 31.6479 192.716 31.9547 193.913 31.9547ZM204.316 40.5456V16.5456H206.907V19.3184H207.225C207.422 19.0153 207.695 18.629 208.043 18.1593C208.399 17.682 208.907 17.2578 209.566 16.8865C210.232 16.5078 211.134 16.3184 212.27 16.3184C213.74 16.3184 215.035 16.6858 216.157 17.4206C217.278 18.1555 218.153 19.1972 218.782 20.5456C219.41 21.8941 219.725 23.485 219.725 25.3184C219.725 27.1668 219.41 28.7691 218.782 30.1252C218.153 31.4737 217.282 32.5191 216.168 33.2615C215.054 33.9964 213.77 34.3638 212.316 34.3638C211.195 34.3638 210.297 34.1782 209.623 33.807C208.948 33.4282 208.429 33.0002 208.066 32.5229C207.702 32.0381 207.422 31.6365 207.225 31.3184H206.998V40.5456H204.316ZM206.952 25.2729C206.952 26.5911 207.145 27.754 207.532 28.7615C207.918 29.7615 208.482 30.5456 209.225 31.1138C209.967 31.6744 210.876 31.9547 211.952 31.9547C213.073 31.9547 214.009 31.6593 214.759 31.0684C215.517 30.4699 216.085 29.6668 216.464 28.6593C216.85 27.6441 217.043 26.5153 217.043 25.2729C217.043 24.0456 216.854 22.9396 216.475 21.9547C216.104 20.9623 215.539 20.1782 214.782 19.6025C214.032 19.0191 213.089 18.7275 211.952 18.7275C210.861 18.7275 209.945 19.004 209.202 19.557C208.46 20.1025 207.899 20.8676 207.52 21.8525C207.142 22.8297 206.952 23.9699 206.952 25.2729ZM229.534 34.3638C227.852 34.3638 226.401 33.9926 225.182 33.2502C223.97 32.5002 223.034 31.4547 222.375 30.1138C221.723 28.7653 221.398 27.1972 221.398 25.4093C221.398 23.6214 221.723 22.0456 222.375 20.682C223.034 19.3108 223.951 18.2426 225.125 17.4775C226.307 16.7047 227.686 16.3184 229.261 16.3184C230.17 16.3184 231.068 16.4699 231.954 16.7729C232.841 17.0759 233.648 17.5684 234.375 18.2502C235.102 18.9244 235.682 19.8184 236.114 20.932C236.545 22.0456 236.761 23.4168 236.761 25.0456V26.182H223.307V23.8638H234.034C234.034 22.879 233.837 22.0002 233.443 21.2275C233.057 20.4547 232.504 19.8449 231.784 19.3979C231.072 18.9509 230.231 18.7275 229.261 18.7275C228.193 18.7275 227.269 18.9926 226.489 19.5229C225.716 20.0456 225.121 20.7275 224.704 21.5684C224.288 22.4093 224.079 23.3108 224.079 24.2729V25.8184C224.079 27.1365 224.307 28.254 224.761 29.1706C225.223 30.0797 225.864 30.7729 226.682 31.2502C227.5 31.7199 228.451 31.9547 229.534 31.9547C230.239 31.9547 230.875 31.8562 231.443 31.6593C232.019 31.4547 232.515 31.1517 232.932 30.7502C233.348 30.3411 233.67 29.8335 233.898 29.2275L236.489 29.9547C236.216 30.8335 235.757 31.6062 235.114 32.2729C234.47 32.932 233.674 33.4472 232.727 33.8184C231.78 34.182 230.716 34.3638 229.534 34.3638Z" fill="#464646"/>
</svg>
